<?xml version="1.0" encoding="UTF-8"?>
<!DOCTYPE svg PUBLIC "-//W3C//DTD SVG 1.1//EN" "http://www.w3.org/Graphics/SVG/1.1/DTD/svg11.dtd">
<!-- Creator: CorelDRAW -->
<svg xmlns="http://www.w3.org/2000/svg" xml:space="preserve" width="2048px" height="2048px" style="shape-rendering:geometricPrecision; text-rendering:geometricPrecision; image-rendering:optimizeQuality; fill-rule:evenodd; clip-rule:evenodd"
viewBox="0 0 2048 2048"
 xmlns:xlink="http://www.w3.org/1999/xlink">
 <defs>
  <style type="text/css">
   <![CDATA[
    .fil2 {fill:none}
    .fil7 {fill:#263238}
    .fil1 {fill:#43A047}
    .fil0 {fill:#66BB6A}
    .fil3 {fill:#BDBDBD}
    .fil5 {fill:#DB3300}
    .fil4 {fill:#FF3D00}
    .fil6 {fill:#0091EA;fill-rule:nonzero}
   ]]>
  </style>
   <clipPath id="id0">
    <path d="M1024 -0.0011811c565.541,0 1024,458.461 1024,1024 0,565.541 -458.461,1024 -1024,1024 -565.541,0 -1024,-458.461 -1024,-1024 0,-565.541 458.461,-1024 1024,-1024z"/>
   </clipPath>
 </defs>
 <g id="Layer_x0020_1">
  <metadata id="CorelCorpID_0Corel-Layer"/>
  <path class="fil0" d="M1024 -0.0011811c565.541,0 1024,458.461 1024,1024 0,565.541 -458.461,1024 -1024,1024 -565.541,0 -1024,-458.461 -1024,-1024 0,-565.541 458.461,-1024 1024,-1024z"/>
  <g style="clip-path:url(#id0)">
   <g id="_466415128">
    <g>
     <polygon id="_4625840321" class="fil1" points="772.163,470.835 1908.04,1606.72 1909.55,1608.37 1910.89,1610.17 1912.06,1612.09 1913.04,1614.13 1913.83,1616.28 1914.41,1618.51 1914.76,1620.83 1914.88,1623.22 778.998,487.334 778.877,484.948 778.524,482.632 777.949,480.396 777.164,478.251 776.181,476.213 775.013,474.289 773.669,472.492 "/>
     <polygon id="_462584872" class="fil1" points="1584,1524.21 2719.88,2660.09 2719.86,2661.63 2719.8,2663.16 2719.71,2664.68 2719.57,2666.19 2719.4,2667.69 2719.19,2669.18 2718.94,2670.65 2718.66,2672.12 2718.34,2673.57 2717.99,2675 2717.61,2676.43 2717.18,2677.84 2716.73,2679.23 2716.24,2680.61 2715.72,2681.98 2715.17,2683.33 2714.58,2684.66 2713.97,2685.98 2713.32,2687.27 2712.64,2688.55 2711.94,2689.82 2711.2,2691.06 2710.44,2692.28 2709.64,2693.48 2708.82,2694.67 2707.97,2695.83 2707.1,2696.97 2706.2,2698.09 2705.27,2699.18 2704.32,2700.26 2703.34,2701.31 2702.33,2702.34 1566.45,1566.45 1567.46,1565.43 1568.43,1564.38 1569.39,1563.3 1570.32,1562.21 1571.22,1561.09 1572.09,1559.95 1572.94,1558.78 1573.76,1557.6 1574.56,1556.4 1575.32,1555.18 1576.06,1553.93 1576.76,1552.67 1577.44,1551.39 1578.09,1550.09 1578.7,1548.78 1579.29,1547.45 1579.84,1546.1 1580.36,1544.73 1580.85,1543.35 1581.3,1541.96 1581.72,1540.55 1582.11,1539.12 1582.46,1537.68 1582.78,1536.23 1583.06,1534.77 1583.31,1533.29 1583.52,1531.81 1583.69,1530.31 1583.83,1528.8 1583.92,1527.28 1583.98,1525.75 "/>
     <polygon id="_462581896" class="fil1" points="1566.45,1566.45 2702.33,2702.34 2701.31,2703.34 2700.26,2704.32 2699.18,2705.27 2698.09,2706.2 2696.97,2707.1 2695.83,2707.98 2694.67,2708.82 2693.48,2709.64 2692.28,2710.44 2691.06,2711.2 2689.81,2711.94 2688.55,2712.65 2687.27,2713.32 2685.98,2713.97 2684.66,2714.58 2683.33,2715.17 2681.98,2715.72 2680.61,2716.24 2679.23,2716.73 2677.84,2717.18 2676.43,2717.61 2675,2717.99 2673.57,2718.35 2672.12,2718.66 2670.65,2718.94 2669.18,2719.19 2667.69,2719.4 2666.19,2719.57 2664.68,2719.71 2663.16,2719.8 2661.63,2719.86 2660.09,2719.88 1524.21,1584 1525.75,1583.98 1527.28,1583.92 1528.8,1583.83 1530.31,1583.69 1531.81,1583.52 1533.29,1583.31 1534.77,1583.06 1536.23,1582.78 1537.69,1582.46 1539.12,1582.11 1540.55,1581.72 1541.96,1581.3 1543.35,1580.85 1544.73,1580.36 1546.1,1579.84 1547.45,1579.29 1548.78,1578.7 1550.09,1578.09 1551.39,1577.44 1552.67,1576.76 1553.93,1576.06 1555.18,1575.32 1556.4,1574.56 1557.6,1573.76 1558.78,1572.94 1559.95,1572.09 1561.09,1571.22 1562.21,1570.32 1563.3,1569.39 1564.38,1568.43 1565.43,1567.46 "/>
     <polygon id="_462583096" class="fil1" points="1524.21,1584 2660.09,2719.88 1659.67,2719.88 523.791,1584 "/>
     <polygon id="_462582184" class="fil1" points="523.791,1584 1659.67,2719.88 1658.13,2719.86 1656.6,2719.8 1655.08,2719.71 1653.57,2719.57 1652.07,2719.4 1650.59,2719.19 1649.11,2718.94 1647.65,2718.66 1646.2,2718.35 1644.76,2717.99 1643.33,2717.61 1641.92,2717.18 1640.53,2716.73 1639.15,2716.24 1637.78,2715.72 1636.43,2715.17 1635.1,2714.58 1633.79,2713.97 1632.49,2713.32 1631.21,2712.65 1629.95,2711.94 1628.7,2711.2 1627.48,2710.44 1626.28,2709.64 1625.1,2708.82 1623.93,2707.98 1622.79,2707.1 1621.67,2706.2 485.792,1570.32 486.912,1571.22 488.053,1572.09 489.214,1572.94 490.398,1573.76 491.6,1574.56 492.824,1575.32 494.066,1576.06 495.328,1576.76 496.608,1577.44 497.905,1578.09 499.22,1578.7 500.553,1579.29 501.902,1579.84 503.267,1580.36 504.646,1580.85 506.043,1581.3 507.453,1581.72 508.877,1582.11 510.315,1582.46 511.766,1582.78 513.23,1583.06 514.706,1583.31 516.193,1583.52 517.692,1583.69 519.202,1583.83 520.722,1583.92 522.252,1583.98 "/>
     <polygon id="_462583192" class="fil1" points="778.998,487.334 1914.88,1623.22 1914.88,1716.54 778.998,580.661 "/>
     <polygon id="_462581752" class="fil1" points="1042,472.492 2177.88,1608.37 2179.23,1610.17 2180.39,1612.09 2181.38,1614.13 2182.16,1616.28 2182.74,1618.51 2183.09,1620.83 2183.21,1623.22 1047.33,487.334 1047.21,484.948 1046.86,482.632 1046.28,480.396 1045.49,478.251 1044.51,476.213 1043.34,474.289 "/>
     <polygon id="_462581776" class="fil1" points="1047.33,487.334 2183.21,1623.22 2183.21,1716.54 1047.33,580.661 "/>
     <polygon id="_462581680" class="fil1" points="1584,865.792 2719.88,2001.67 2719.88,2660.09 1584,1524.21 "/>
     <polygon id="_462581560" class="fil1" points="1310.33,472.492 2446.21,1608.37 2447.56,1610.17 2448.73,1612.09 2449.71,1614.13 2450.49,1616.28 2451.07,1618.51 2451.42,1620.83 2451.54,1623.22 1315.66,487.334 1315.54,484.948 1315.19,482.632 1314.61,480.396 1313.83,478.251 1312.85,476.213 1311.68,474.289 "/>
     <polygon id="_462581536" class="fil1" points="1315.66,487.334 2451.54,1623.22 2451.54,1716.54 1315.66,580.661 "/>
     <polygon id="_462581320" class="fil1" points="1584,580.662 2719.88,1716.54 2719.88,1739.88 1584,603.995 "/>
     <polygon id="_462581416" class="fil1" points="1584,603.995 2719.88,1739.88 2719.88,1968.08 1584,832.198 "/>
     <polygon id="_462583480" class="fil1" points="1584,832.198 2719.88,1968.08 2719.88,1973.21 1584,837.329 "/>
     <polygon id="_462581248" class="fil1" points="1584,837.329 2719.88,1973.21 2719.88,1998.62 1584,862.738 "/>
     <polygon id="_462580984" class="fil1" points="1584,862.738 2719.88,1998.62 2719.88,2001.67 1584,865.792 "/>
    </g>
    <path id="_466415440" class="fil1" d="M1584 865.792l0 658.415c0,16.4658 -6.72048,31.4209 -17.5465,42.2457 -10.8248,10.826 -25.7788,17.5465 -42.2445,17.5465l-1000.42 0c-16.4658,0 -31.4209,-6.72048 -42.2457,-17.5465 -10.8236,-10.8248 -17.5453,-25.7788 -17.5453,-42.2457l0 -658.415 0 -3.05433 0 -25.4091 0 -5.13071 0 -228.203 0 -23.3327 23.3339 -0.0011811 244.996 0 0 -93.3272c0,-12.8858 10.4469,-23.3339 23.3339,-23.3339 12.8858,0 23.3339,10.448 23.3339,23.3339l0 93.3272 221.664 0 0 -93.3272c0,-12.8858 10.448,-23.3339 23.3339,-23.3339 12.887,0 23.3339,10.448 23.3339,23.3339l0 93.3272 221.665 0 0 -93.3272c0,-12.8858 10.4469,-23.3339 23.3339,-23.3339 12.887,0 23.3339,10.448 23.3339,23.3339l0 93.3272 245.005 0 23.3339 0.0011811 0 23.3327 0 228.203 0 5.13071 0 25.4091 0 3.05433z"/>
   </g>
  </g>
  <path class="fil2" d="M1024 -0.0011811c565.541,0 1024,458.461 1024,1024 0,565.541 -458.461,1024 -1024,1024 -565.541,0 -1024,-458.461 -1024,-1024 0,-565.541 458.461,-1024 1024,-1024z"/>
  <path class="fil3" d="M1584 837.329l0 686.879c0,16.4658 -6.72048,31.4209 -17.5465,42.2457 -10.8248,10.826 -25.7788,17.5465 -42.2445,17.5465l-1000.42 0c-16.4658,0 -31.4209,-6.72048 -42.2457,-17.5465 -10.8236,-10.8248 -17.5453,-25.7788 -17.5453,-42.2457l0 -686.879 1120 0z"/>
  <path class="fil4" d="M487.334 580.661c525.111,0 548.214,0 1073.33,0l23.3339 0.0011811 0 23.3327 0 233.334 -1120 0 0 -233.334 0 -23.3327 23.3339 -0.0011811z"/>
  <path class="fil5" d="M487.334 865.792c525.111,0 548.214,0 1073.33,0l23.3339 0 0 -3.05433 0 -30.5398 -1120 0 0 30.5398 0 3.05433 23.3339 0z"/>
  <path class="fil6" d="M732.33 487.334c0,-12.8858 10.4469,-23.3339 23.3339,-23.3339 12.8858,0 23.3339,10.448 23.3339,23.3339l0 233.333c0,12.8858 -10.448,23.3339 -23.3339,23.3339 -12.887,0 -23.3339,-10.448 -23.3339,-23.3339l0 -233.333z"/>
  <path class="fil6" d="M1000.66 487.334c0,-12.8858 10.448,-23.3339 23.3339,-23.3339 12.887,0 23.3339,10.448 23.3339,23.3339l0 233.333c0,12.8858 -10.4469,23.3339 -23.3339,23.3339 -12.8858,0 -23.3339,-10.448 -23.3339,-23.3339l0 -233.333z"/>
  <path class="fil6" d="M1268.99 487.334c0,-12.8858 10.4469,-23.3339 23.3339,-23.3339 12.887,0 23.3339,10.448 23.3339,23.3339l0 233.333c0,12.8858 -10.4469,23.3339 -23.3339,23.3339 -12.887,0 -23.3339,-10.448 -23.3339,-23.3339l0 -233.333z"/>
  <path class="fil7" d="M1340.41 1373.7l0 50.4626 -282.571 0c-0.398032,-12.6402 1.59213,-24.7831 6.07087,-36.4288 7.16693,-19.3099 18.7122,-38.2205 34.5378,-56.9315 15.9248,-18.613 38.817,-40.2118 68.6776,-64.6961 46.4811,-38.1213 77.9327,-68.2796 94.2556,-90.5741 16.324,-22.1953 24.4855,-43.2969 24.4855,-63.104 0,-20.8016 -7.46457,-38.3197 -22.2945,-52.6524 -14.9303,-14.2323 -34.3394,-21.3992 -58.2272,-21.3992 -25.2803,0 -45.4855,7.56497 -60.6142,22.7929 -15.2291,15.1288 -22.8921,36.1299 -23.0918,62.9044l-53.9469 -5.47441c3.68386,-40.3111 17.6173,-70.9654 41.7048,-92.067 24.0862,-21.1016 56.5335,-31.6512 97.1434,-31.6512 41.0067,0 73.454,11.4473 97.3418,34.1398 23.987,22.7929 35.9303,50.9599 35.9303,84.6024 0,17.1189 -3.48307,33.9402 -10.5496,50.4615 -6.96733,16.5225 -18.613,33.9414 -34.8366,52.1563 -16.2236,18.313 -43.1965,43.3949 -80.9186,75.2457 -31.4528,26.4756 -51.6579,44.3906 -60.6154,53.8465 -8.95749,9.3567 -16.324,18.8114 -22.1953,28.3666l209.713 0z"/>
  <path class="fil7" d="M1008.27 1373.7l0 50.4626 -282.571 0c-0.398032,-12.6402 1.59213,-24.7831 6.07087,-36.4288 7.16693,-19.3099 18.7122,-38.2205 34.5378,-56.9315 15.9248,-18.613 38.817,-40.2118 68.6776,-64.6961 46.4811,-38.1213 77.9327,-68.2796 94.2556,-90.5741 16.324,-22.1953 24.4855,-43.2969 24.4855,-63.104 0,-20.8016 -7.46457,-38.3197 -22.2945,-52.6524 -14.9303,-14.2323 -34.3394,-21.3992 -58.2272,-21.3992 -25.2803,0 -45.4855,7.56497 -60.6154,22.7929 -15.228,15.1288 -22.891,36.1299 -23.0906,62.9044l-53.9469 -5.47441c3.68386,-40.3111 17.6173,-70.9654 41.7048,-92.067 24.0862,-21.1016 56.5335,-31.6512 97.1434,-31.6512 41.0067,0 73.454,11.4473 97.3418,34.1398 23.987,22.7929 35.9303,50.9599 35.9303,84.6024 0,17.1189 -3.48307,33.9402 -10.5496,50.4615 -6.96733,16.5225 -18.613,33.9414 -34.8366,52.1563 -16.2236,18.313 -43.1965,43.3949 -80.9186,75.2457 -31.4528,26.4756 -51.6579,44.3906 -60.6154,53.8465 -8.95749,9.3567 -16.324,18.8114 -22.1953,28.3666l209.713 0z"/>
 </g>
</svg>
